<?xml version="1.0" standalone="no"?>
<!DOCTYPE svg PUBLIC "-//W3C//DTD SVG 20010904//EN"
 "http://www.w3.org/TR/2001/REC-SVG-20010904/DTD/svg10.dtd">
<svg version="1.0" xmlns="http://www.w3.org/2000/svg"
 width="225.000000pt" height="225.000000pt" viewBox="0 0 225.000000 225.000000"
 preserveAspectRatio="xMidYMid meet">
<metadata>
Created by potrace 1.14, written by Peter Selinger 2001-2017
</metadata>
<g transform="translate(0.000000,225.000000) scale(0.100000,-0.100000)"
fill="#000000" stroke="none">
<path d="M930 2136 c-427 -90 -752 -426 -820 -849 -17 -106 -8 -320 18 -419
51 -191 136 -334 282 -478 198 -195 433 -291 715 -291 285 0 514 92 717 289
132 128 220 274 274 457 38 127 45 346 16 486 -79 382 -366 684 -751 791 -98
26 -352 34 -451 14z m115 -604 l0 -72 35 0 35 0 -3 75 -4 75 46 0 46 0 0 -74
0 -73 58 -12 c70 -14 116 -41 142 -83 36 -60 21 -155 -31 -192 -21 -15 -21
-15 12 -29 61 -26 83 -60 87 -135 6 -125 -50 -188 -190 -213 l-67 -12 -3 -71
-3 -71 -45 0 -45 0 -3 73 -3 72 -29 0 -30 0 0 -75 0 -75 -45 0 -45 0 0 75 0
75 -91 0 -90 0 7 48 c3 26 9 50 13 54 3 4 24 8 46 10 l40 3 0 225 0 225 -52 3
-53 3 0 50 0 49 85 0 85 0 0 68 c0 38 3 72 7 76 4 4 25 6 48 4 l40 -3 0 -73z"/>
<path d="M1050 1269 l0 -92 72 6 c90 8 122 28 126 81 2 25 -2 44 -13 56 -19
21 -87 40 -144 40 l-41 0 0 -91z"/>
<path d="M1050 994 l0 -97 83 5 c95 5 140 25 155 66 25 73 -42 122 -168 122
l-70 0 0 -96z"/>
</g>
</svg>
